<svg width="1378" height="2009" viewBox="0 0 1378 2009" fill="none" xmlns="http://www.w3.org/2000/svg">
<path d="M58.1445 12.6991C79.8371 63.0139 53.337 94.7602 7.78314 79.6745" stroke="#C6935C" stroke-width="4"/>
<path d="M9.90235 1934.25C55.5821 1919.68 75.7698 1957.5 53.6841 2007.56" stroke="#C6935C" stroke-width="4"/>
<path d="M1370.76 68.5844C1330.49 98.2509 1302.09 68.9603 1311.25 13.415" stroke="#C6935C" stroke-width="4"/>
<path d="M1319.13 2004.15C1300.21 1952.26 1328.37 1922.64 1373.01 1941.23" stroke="#C6935C" stroke-width="4"/>
<path d="M9 75.4722L10.9885 1935.92" stroke="#C6935C" stroke-width="4"/>
<path d="M54 2005.4H1321" stroke="#C6935C" stroke-width="4"/>
<path d="M1372 64.6905V1943.12" stroke="#C6935C" stroke-width="4"/>
<path d="M59 15.5736L1311 15.5736" stroke="#C6935C" stroke-width="4"/>
<path d="M116.709 57.1363C136.374 105.221 112.351 135.56 71.0556 121.143" stroke="#C6935C" stroke-width="4"/>
<path d="M72.9767 1893.52C114.386 1879.59 132.687 1915.74 112.666 1963.58" stroke="#C6935C" stroke-width="4"/>
<path d="M1306.62 110.545C1270.12 138.896 1244.38 110.904 1252.68 57.8204" stroke="#C6935C" stroke-width="4"/>
<path d="M1259.82 1960.33C1242.67 1910.73 1268.2 1882.42 1308.67 1900.19" stroke="#C6935C" stroke-width="4"/>
<path d="M72.1587 117.127L73.9613 1895.12" stroke="#C6935C" stroke-width="4"/>
<path d="M112.952 1961.52H1261.52" stroke="#C6935C" stroke-width="4"/>
<path d="M1307.75 106.823V1902" stroke="#C6935C" stroke-width="4"/>
<path d="M117.485 59.8834L1252.45 59.8834" stroke="#C6935C" stroke-width="4"/>
</svg>
